<svg xmlns="http://www.w3.org/2000/svg" width="27.71" height="27" viewBox="0 0 27.71 27">
  <g id="グループ_1" data-name="グループ 1" transform="translate(0 0)">
    <path id="パス_1" data-name="パス 1" d="M58.082,36.805a7.047,7.047,0,0,0-5.96-4.632,3.059,3.059,0,0,1-1.324-.938,6.758,6.758,0,0,0-12.536.01,3.053,3.053,0,0,1-1.3.969A6.758,6.758,0,0,0,33.1,44.14a3.046,3.046,0,0,1,.52,1.538,7.064,7.064,0,0,0,2.6,7.115,6.462,6.462,0,0,0,3.818,1.215,7.968,7.968,0,0,0,3.726-.971,3.047,3.047,0,0,1,1.624-.018,6.759,6.759,0,0,0,10.135-7.378,3.034,3.034,0,0,1,.5-1.564A7.061,7.061,0,0,0,58.082,36.805Z" transform="translate(-30.691 -27.008)" fill="#fff"/>
    <path id="パス_2" data-name="パス 2" d="M55.484,45.334a.916.916,0,0,0-.15-.123.82.82,0,0,0-.169-.092.889.889,0,0,0-.182-.059,1.265,1.265,0,0,0-.377,0,.949.949,0,0,0-.189.059.773.773,0,0,0-.163.092.7.7,0,0,0-.15.123.924.924,0,0,0-.124.144,1.4,1.4,0,0,0-.091.169c-.014.042-.025.086-.037.129H49.816c-.01-.038-.02-.077-.033-.114l3.262-2.37a.934.934,0,0,0,.247.149.9.9,0,0,0,.371.078.956.956,0,0,0,.377-.078.905.905,0,0,0,.312-.208,1.075,1.075,0,0,0,.215-.319,1.02,1.02,0,0,0,.072-.371,1,1,0,0,0-.02-.2c-.013-.058-.033-.123-.052-.182s-.059-.111-.091-.169a1.293,1.293,0,0,0-.124-.142.949.949,0,0,0-.15-.124,1.034,1.034,0,0,0-.169-.09,1.383,1.383,0,0,0-.182-.052.973.973,0,0,0-.878.267A1.293,1.293,0,0,0,52.85,42a1.248,1.248,0,0,0-.143.351,1,1,0,0,0-.02.2.908.908,0,0,0,.072.354L49.49,45.273a.43.43,0,0,0-.075-.062c-.018-.01,1.231-3.85,1.231-3.85.019,0,.038.006.057.006a.949.949,0,0,0,.69-.287,1.026,1.026,0,0,0,.215-.312.951.951,0,0,0,.072-.377.988.988,0,0,0-.286-.69.681.681,0,0,0-.15-.117.591.591,0,0,0-.163-.09.987.987,0,0,0-.182-.059.953.953,0,0,0-.384,0,.851.851,0,0,0-.182.059.626.626,0,0,0-.169.09.878.878,0,0,0-.15.117.988.988,0,0,0-.286.69.959.959,0,0,0,.078.377.9.9,0,0,0,.208.312.926.926,0,0,0,.173.116l-1.253,3.857a1.012,1.012,0,0,0-.117,0L47.564,41.2a.857.857,0,0,0,.172-.117,1.026,1.026,0,0,0,.215-.312,1.081,1.081,0,0,0,.072-.377.988.988,0,0,0-.286-.69.878.878,0,0,0-.15-.117.626.626,0,0,0-.169-.09.852.852,0,0,0-.182-.059.921.921,0,0,0-.377,0,.851.851,0,0,0-.182.059.626.626,0,0,0-.169.09.681.681,0,0,0-.15.117.988.988,0,0,0-.286.69,1.081,1.081,0,0,0,.072.377,1.026,1.026,0,0,0,.215.312.949.949,0,0,0,.69.287c.02,0,.036-.01.056-.011l1.25,3.849a.858.858,0,0,0-.09.07L45,42.9a.98.98,0,0,0,.048-.552c-.013-.058-.033-.123-.052-.182s-.059-.111-.091-.169a1.293,1.293,0,0,0-.124-.142.949.949,0,0,0-.15-.124,1.034,1.034,0,0,0-.169-.09,1.382,1.382,0,0,0-.182-.052.979.979,0,0,0-.878.267,1.3,1.3,0,0,0-.124.142,1.248,1.248,0,0,0-.143.351,1,1,0,0,0-.02.2,1.02,1.02,0,0,0,.072.371,1.075,1.075,0,0,0,.215.319.931.931,0,0,0,.319.208.9.9,0,0,0,.371.078.956.956,0,0,0,.377-.078.862.862,0,0,0,.241-.148l3.264,2.371a1.122,1.122,0,0,0-.034.113H43.9a.943.943,0,0,0-.25-.442.668.668,0,0,0-.143-.123.82.82,0,0,0-.169-.092,1.038,1.038,0,0,0-.182-.059,1.308,1.308,0,0,0-.384,0,1.037,1.037,0,0,0-.182.059.82.82,0,0,0-.169.092.916.916,0,0,0-.15.123.965.965,0,0,0-.286.69.963.963,0,0,0,.6.9.9.9,0,0,0,.371.072.928.928,0,0,0,.377-.072.909.909,0,0,0,.312-.209.951.951,0,0,0,.239-.449h4.05a.941.941,0,0,0,.035.113L44.7,48.75a.988.988,0,0,0-.8-.208.851.851,0,0,0-.182.059.626.626,0,0,0-.169.09.877.877,0,0,0-.15.117,1.382,1.382,0,0,0-.124.15.834.834,0,0,0-.085.168.857.857,0,0,0-.059.183.973.973,0,0,0-.02.189,1.081,1.081,0,0,0,.072.377,1.026,1.026,0,0,0,.215.312.972.972,0,0,0,1.379,0,1.026,1.026,0,0,0,.215-.312,1.081,1.081,0,0,0,.072-.377.973.973,0,0,0-.02-.189A1.3,1.3,0,0,0,45,49.14l3.261-2.37a1.013,1.013,0,0,0,.095.072L47.1,50.7a.971.971,0,0,0-.742.264.858.858,0,0,0-.124.142,1.247,1.247,0,0,0-.143.351,1,1,0,0,0-.02.2.975.975,0,0,0,.286.69.873.873,0,0,0,.319.208.9.9,0,0,0,.371.078.974.974,0,0,0,.69-.286.987.987,0,0,0,.286-.69,1,1,0,0,0-.02-.2c-.013-.058-.033-.123-.052-.182s-.059-.111-.091-.169a1.3,1.3,0,0,0-.124-.142.892.892,0,0,0-.174-.113l1.254-3.861c.02,0,.038.005.058.005s.038,0,.058-.005l1.255,3.861a.877.877,0,0,0-.174.113.609.609,0,0,0-.117.142.718.718,0,0,0-.091.169,1.019,1.019,0,0,0-.059.182,1,1,0,0,0-.02.2.987.987,0,0,0,.286.69.931.931,0,0,0,.319.208.9.9,0,0,0,.371.078.974.974,0,0,0,.69-.286.959.959,0,0,0,.286-.69,1,1,0,0,0-.02-.2.987.987,0,0,0-.052-.182c-.026-.059-.059-.111-.091-.169a1.294,1.294,0,0,0-.124-.142.97.97,0,0,0-.742-.264L49.4,46.844a.9.9,0,0,0,.095-.073l3.265,2.373a.854.854,0,0,0-.053.165.973.973,0,0,0-.02.189,1.081,1.081,0,0,0,.072.377,1.026,1.026,0,0,0,.215.312.96.96,0,0,0,.69.287,1.064,1.064,0,0,0,.377-.072,1.042,1.042,0,0,0,.527-.526,1.081,1.081,0,0,0,.072-.377.988.988,0,0,0-.286-.69.681.681,0,0,0-.15-.117.591.591,0,0,0-.163-.09.908.908,0,0,0-.189-.059.988.988,0,0,0-.8.209l-3.265-2.373a.947.947,0,0,0,.034-.113h4.05a.95.95,0,0,0,.239.449.909.909,0,0,0,.312.209.949.949,0,0,0,.377.072.9.9,0,0,0,.371-.072.934.934,0,0,0,.319-.209,1,1,0,0,0,.286-.689A.965.965,0,0,0,55.484,45.334Z" transform="translate(-34.637 -31.344)" fill="#aa9e41"/>
  </g>
</svg>
