<svg id="グループ_11" data-name="グループ 11" xmlns="http://www.w3.org/2000/svg" width="50.502" height="20.408" viewBox="0 0 50.502 20.408">
  <path id="パス_3" data-name="パス 3" d="M262.928,150.287c-5.813-.395-6.379-.59-10.747-3.754a10.542,10.542,0,0,0-6.061-1.878,10.283,10.283,0,0,0-6.048,1.906c-4.382,3.137-4.948,3.332-10.778,3.692-4.7.319-8.425,3.485-8.425,7.394,0,4.1,4.08,7.416,9.114,7.416a10.88,10.88,0,0,0,3.515-.575c11.632-3.951,13.612-3.951,25.192-.016a11,11,0,0,0,3.567.591c5.033,0,9.114-3.32,9.114-7.416C271.371,153.738,267.643,150.572,262.928,150.287Z" transform="translate(-220.869 -144.655)" fill="#be0000"/>
  <rect id="長方形_7" data-name="長方形 7" width="2.683" height="5.812" rx="0.561" transform="translate(23.909 9.814)" fill="#fff"/>
  <g id="グループ_6" data-name="グループ 6" transform="translate(10.446 11.527)">
    <path id="パス_4" data-name="パス 4" d="M233.535,158.39a1.554,1.554,0,0,1-1.87-.258l-2.581-2.961a.972.972,0,0,1,.319-1.522,1.552,1.552,0,0,1,1.87.26l2.581,2.96A.972.972,0,0,1,233.535,158.39Z" transform="translate(-228.839 -153.449)" fill="#fff"/>
    <path id="パス_5" data-name="パス 5" d="M247.979,158.39a1.554,1.554,0,0,0,1.87-.258l2.581-2.961a.972.972,0,0,0-.319-1.522,1.552,1.552,0,0,0-1.87.26l-2.581,2.96A.972.972,0,0,0,247.979,158.39Z" transform="translate(-223.066 -153.449)" fill="#fff"/>
  </g>
</svg>
